<?xml version="1.0" standalone="no"?>
<!DOCTYPE svg PUBLIC "-//W3C//DTD SVG 20010904//EN"
 "http://www.w3.org/TR/2001/REC-SVG-20010904/DTD/svg10.dtd">
<svg version="1.0" xmlns="http://www.w3.org/2000/svg"
 width="2300.000000pt" height="2300.000000pt" viewBox="0 0 2300.000000 2300.000000"
 preserveAspectRatio="xMidYMid meet">
<metadata>
Created by potrace 1.14, written by Peter Selinger 2001-2017
</metadata>
<g transform="translate(0.000000,2300.000000) scale(0.100000,-0.100000)"
fill="#000000" stroke="none">
<path d="M6520 21475 c-359 -75 -717 -254 -987 -494 -468 -416 -772 -1054
-898 -1883 -44 -290 -56 -457 -62 -838 -11 -717 54 -1367 222 -2205 52 -261
148 -691 171 -767 4 -14 -11 -22 -83 -43 -683 -203 -1217 -395 -1705 -611
-1631 -723 -2599 -1613 -2851 -2621 -19 -76 -41 -181 -48 -233 -17 -121 -17
-438 -1 -555 102 -721 558 -1389 1357 -1985 755 -563 1825 -1060 3090 -1436
121 -36 226 -67 233 -70 8 -2 11 -12 8 -21 -21 -69 -118 -502 -171 -768 -116
-579 -182 -1080 -215 -1615 -13 -215 -13 -713 0 -915 71 -1090 392 -1897 953
-2396 273 -243 625 -418 991 -494 l130 -26 410 3 c403 4 414 5 541 32 566 119
1102 338 1700 694 662 395 1416 983 2072 1616 l123 118 167 -160 c704 -671
1452 -1244 2139 -1638 560 -321 1062 -520 1589 -631 127 -26 139 -27 541 -31
l410 -3 130 26 c1075 222 1754 1139 1918 2595 56 496 46 1170 -24 1790 -57
499 -161 1074 -294 1630 -25 102 -43 186 -41 188 1 2 112 36 246 77 2402 728
3909 1766 4334 2985 365 1051 -83 2108 -1265 2982 -756 559 -1798 1042 -3079
1427 -128 38 -235 71 -236 73 -2 2 21 104 50 228 130 547 228 1096 285 1590
70 619 80 1294 24 1790 -154 1370 -760 2260 -1734 2550 -219 64 -273 70 -689
70 -335 0 -392 -2 -497 -20 -873 -150 -1875 -668 -2929 -1514 -300 -241 -656
-553 -913 -801 l-132 -127 -128 123 c-152 147 -373 348 -567 514 -1191 1024
-2304 1636 -3279 1804 -106 19 -159 21 -505 20 -367 0 -392 -2 -501 -24z m821
-956 c920 -150 2090 -865 3322 -2031 81 -77 147 -144 147 -149 0 -6 -48 -63
-107 -127 -526 -573 -1148 -1346 -1673 -2076 -63 -87 -119 -159 -124 -161 -6
-1 -132 -15 -281 -29 -805 -80 -1762 -229 -2500 -391 -110 -24 -203 -41 -207
-37 -17 18 -151 633 -213 977 -255 1421 -206 2586 140 3290 164 334 365 541
644 661 98 43 242 80 358 93 121 13 347 4 494 -20z m8795 20 c600 -60 989
-460 1189 -1224 200 -759 169 -1857 -86 -3115 -50 -243 -149 -673 -157 -682
-4 -4 -34 0 -67 8 -120 28 -706 144 -927 183 -535 94 -1241 192 -1743 241
-121 11 -230 23 -242 26 -13 2 -42 32 -70 72 -505 714 -1194 1573 -1735 2164
-60 64 -108 121 -108 127 0 20 443 428 720 662 1171 989 2238 1530 3051 1548
36 0 115 -4 175 -10z m-4469 -3086 c361 -406 645 -747 990 -1191 78 -101 143
-188 143 -194 0 -5 -8 -7 -17 -4 -10 3 -208 10 -441 17 -438 12 -1684 6 -1992
-10 -85 -4 -156 -7 -157 -6 -5 3 327 425 527 670 276 339 761 895 780 895 5 0
80 -80 167 -177z m378 -2343 c554 -12 1231 -43 1447 -66 l56 -6 190 -286 c637
-965 1166 -1881 1678 -2904 l174 -348 -161 -323 c-526 -1052 -1052 -1961
-1701 -2944 l-180 -271 -56 -6 c-32 -3 -169 -13 -307 -21 -1128 -67 -2229 -67
-3370 0 -137 8 -276 18 -307 21 l-57 6 -189 287 c-637 964 -1166 1880 -1678
2903 l-174 348 174 348 c512 1024 1036 1930 1678 2903 l189 286 57 7 c195 21
927 56 1382 65 519 11 664 11 1155 1z m3130 -246 c176 -24 451 -67 610 -94
422 -72 1007 -188 1023 -204 8 -9 -188 -595 -308 -921 -88 -238 -276 -720
-355 -908 l-37 -88 -132 248 c-329 617 -698 1256 -1045 1807 -72 115 -131 209
-131 211 0 2 9 1 375 -51z m-7080 -119 c-363 -574 -729 -1206 -1062 -1832
-136 -255 -140 -262 -152 -235 -37 79 -234 575 -320 804 -166 443 -380 1072
-369 1084 14 14 602 132 988 198 343 59 912 143 977 145 l42 1 -104 -165z
m-2732 -803 c244 -735 525 -1454 863 -2209 l105 -233 -105 -232 c-337 -753
-618 -1473 -864 -2213 -69 -209 -126 -381 -127 -382 -1 -4 -207 57 -433 128
-922 291 -1728 652 -2327 1043 -286 188 -499 360 -710 578 -262 269 -415 518
-493 798 -23 87 -26 111 -26 280 0 169 3 193 26 280 114 410 431 810 954 1203
592 444 1528 886 2574 1215 203 64 417 129 430 131 3 0 63 -174 133 -387z
m12517 354 c753 -214 1537 -522 2125 -834 524 -278 911 -556 1225 -879 268
-275 423 -526 497 -803 33 -127 42 -335 20 -465 -76 -432 -405 -871 -972
-1297 -554 -415 -1370 -813 -2331 -1137 -200 -67 -676 -213 -679 -208 -1 1
-35 103 -75 227 -242 753 -585 1636 -937 2413 l-85 187 87 192 c351 773 717
1718 951 2456 33 103 63 181 69 179 5 -3 53 -16 105 -31z m-10635 -4602 c233
-422 569 -993 823 -1396 113 -180 127 -208 109 -208 -20 0 -205 24 -387 50
-635 90 -1600 273 -1600 302 0 16 142 444 225 678 127 356 391 1040 466 1202
12 27 16 20 144 -221 73 -137 172 -320 220 -407z m9028 251 c74 -187 177 -452
227 -590 126 -344 316 -912 308 -921 -20 -19 -817 -173 -1263 -244 -261 -41
-745 -109 -745 -104 0 1 58 95 130 208 354 562 770 1283 1090 1893 l85 161 16
-31 c9 -18 77 -185 152 -372z m-10108 -2509 c759 -163 1670 -303 2525 -389
l224 -23 50 -69 c611 -847 1191 -1570 1740 -2169 88 -96 107 -122 99 -135 -5
-9 -86 -87 -179 -175 -1572 -1477 -3045 -2213 -3962 -1981 -484 123 -810 516
-987 1190 -225 854 -159 2104 187 3575 27 118 52 219 55 223 3 4 12 6 21 3 10
-3 112 -25 227 -50z m10967 -152 c384 -1610 427 -2955 123 -3834 -46 -132
-148 -342 -214 -440 -184 -273 -414 -441 -703 -515 -504 -127 -1195 41 -1988
483 -626 350 -1307 869 -2012 1535 -82 76 -148 143 -148 149 0 5 46 60 103
121 520 567 1141 1337 1661 2059 84 118 135 179 149 182 12 3 119 14 237 26
809 79 1811 235 2530 394 107 24 200 43 205 41 6 -1 31 -91 57 -201z m-6467
-365 c395 -12 1658 -6 1985 10 85 4 156 6 157 6 4 -2 -341 -442 -503 -641
-280 -345 -784 -924 -804 -924 -9 0 -249 267 -446 495 -229 267 -527 633 -744
915 -57 74 -108 141 -114 149 -9 12 -4 13 34 8 25 -4 221 -12 435 -18z"/>
<path d="M11256 13489 c-769 -99 -1417 -630 -1656 -1356 -70 -216 -100 -403
-100 -633 0 -80 5 -184 10 -230 86 -688 498 -1270 1116 -1571 275 -134 560
-199 876 -199 540 0 1036 206 1418 589 320 321 517 733 571 1195 17 141 6 432
-20 573 -101 539 -406 1003 -855 1305 -259 174 -547 283 -854 323 -123 16
-393 18 -506 4z"/>
</g>
</svg>
